<svg id="visual" viewBox="0 0 900 300" width="900" height="300" xmlns="http://www.w3.org/2000/svg" xmlns:xlink="http://www.w3.org/1999/xlink" version="1.1"><path d="M0 259L10.7 256.8C21.3 254.7 42.7 250.3 64.2 247C85.7 243.7 107.3 241.3 128.8 242.7C150.3 244 171.7 249 193 252C214.3 255 235.7 256 257 256.8C278.3 257.7 299.7 258.3 321.2 257.7C342.7 257 364.3 255 385.8 252.5C407.3 250 428.7 247 450 247C471.3 247 492.7 250 514.2 250C535.7 250 557.3 247 578.8 246.2C600.3 245.3 621.7 246.7 643 247.2C664.3 247.7 685.7 247.3 707 247.2C728.3 247 749.7 247 771.2 247C792.7 247 814.3 247 835.8 249.2C857.3 251.3 878.7 255.7 889.3 257.8L900 260L900 301L889.3 301C878.7 301 857.3 301 835.8 301C814.3 301 792.7 301 771.2 301C749.7 301 728.3 301 707 301C685.7 301 664.3 301 643 301C621.7 301 600.3 301 578.8 301C557.3 301 535.7 301 514.2 301C492.7 301 471.3 301 450 301C428.7 301 407.3 301 385.8 301C364.3 301 342.7 301 321.2 301C299.7 301 278.3 301 257 301C235.7 301 214.3 301 193 301C171.7 301 150.3 301 128.8 301C107.3 301 85.7 301 64.2 301C42.7 301 21.3 301 10.7 301L0 301Z" fill="#a2d2f3"></path><path d="M0 262L10.7 263C21.3 264 42.7 266 64.2 266.5C85.7 267 107.3 266 128.8 266C150.3 266 171.7 267 193 265.2C214.3 263.3 235.7 258.7 257 255.7C278.3 252.7 299.7 251.3 321.2 253.8C342.7 256.3 364.3 262.7 385.8 265.8C407.3 269 428.7 269 450 266.8C471.3 264.7 492.7 260.3 514.2 258.3C535.7 256.3 557.3 256.7 578.8 257.7C600.3 258.7 621.7 260.3 643 262C664.3 263.7 685.7 265.3 707 263.8C728.3 262.3 749.7 257.7 771.2 257.8C792.7 258 814.3 263 835.8 263C857.3 263 878.7 258 889.3 255.5L900 253L900 301L889.3 301C878.7 301 857.3 301 835.8 301C814.3 301 792.7 301 771.2 301C749.7 301 728.3 301 707 301C685.7 301 664.3 301 643 301C621.7 301 600.3 301 578.8 301C557.3 301 535.7 301 514.2 301C492.7 301 471.3 301 450 301C428.7 301 407.3 301 385.8 301C364.3 301 342.7 301 321.2 301C299.7 301 278.3 301 257 301C235.7 301 214.3 301 193 301C171.7 301 150.3 301 128.8 301C107.3 301 85.7 301 64.2 301C42.7 301 21.3 301 10.7 301L0 301Z" fill="#b7ccf5"></path><path d="M0 265L10.7 264.8C21.3 264.7 42.7 264.3 64.2 264.8C85.7 265.3 107.3 266.7 128.8 266.7C150.3 266.7 171.7 265.3 193 266.2C214.3 267 235.7 270 257 271.8C278.3 273.7 299.7 274.3 321.2 272.8C342.7 271.3 364.3 267.7 385.8 265.8C407.3 264 428.7 264 450 264.5C471.3 265 492.7 266 514.2 267.7C535.7 269.3 557.3 271.7 578.8 272.7C600.3 273.7 621.7 273.3 643 272.5C664.3 271.7 685.7 270.3 707 269C728.3 267.7 749.7 266.3 771.2 267.5C792.7 268.7 814.3 272.3 835.8 272.5C857.3 272.7 878.7 269.3 889.3 267.7L900 266L900 301L889.3 301C878.7 301 857.3 301 835.8 301C814.3 301 792.7 301 771.2 301C749.7 301 728.3 301 707 301C685.7 301 664.3 301 643 301C621.7 301 600.3 301 578.8 301C557.3 301 535.7 301 514.2 301C492.7 301 471.3 301 450 301C428.7 301 407.3 301 385.8 301C364.3 301 342.7 301 321.2 301C299.7 301 278.3 301 257 301C235.7 301 214.3 301 193 301C171.7 301 150.3 301 128.8 301C107.3 301 85.7 301 64.2 301C42.7 301 21.3 301 10.7 301L0 301Z" fill="#cfc4ef"></path><path d="M0 276L10.7 276.5C21.3 277 42.7 278 64.2 278C85.7 278 107.3 277 128.8 276.5C150.3 276 171.7 276 193 276C214.3 276 235.7 276 257 276.7C278.3 277.3 299.7 278.7 321.2 278.7C342.7 278.7 364.3 277.3 385.8 277.5C407.3 277.7 428.7 279.3 450 280.5C471.3 281.7 492.7 282.3 514.2 283C535.7 283.7 557.3 284.3 578.8 284.7C600.3 285 621.7 285 643 284.8C664.3 284.7 685.7 284.3 707 284.3C728.3 284.3 749.7 284.7 771.2 283.5C792.7 282.3 814.3 279.7 835.8 279.8C857.3 280 878.7 283 889.3 284.5L900 286L900 301L889.3 301C878.7 301 857.3 301 835.8 301C814.3 301 792.7 301 771.2 301C749.7 301 728.3 301 707 301C685.7 301 664.3 301 643 301C621.7 301 600.3 301 578.8 301C557.3 301 535.7 301 514.2 301C492.7 301 471.3 301 450 301C428.7 301 407.3 301 385.8 301C364.3 301 342.7 301 321.2 301C299.7 301 278.3 301 257 301C235.7 301 214.3 301 193 301C171.7 301 150.3 301 128.8 301C107.3 301 85.7 301 64.2 301C42.7 301 21.3 301 10.7 301L0 301Z" fill="#e3bde1"></path></svg>