<svg id="visual" viewBox="0 0 900 675" width="900" height="675" xmlns="http://www.w3.org/2000/svg" xmlns:xlink="http://www.w3.org/1999/xlink" version="1.1"><path d="M0 542L10.7 544.3C21.3 546.7 42.7 551.3 64.2 551.3C85.7 551.3 107.3 546.7 128.8 544.7C150.3 542.7 171.7 543.3 193 547.2C214.3 551 235.7 558 257 560.5C278.3 563 299.7 561 321.2 561.2C342.7 561.3 364.3 563.7 385.8 562.7C407.3 561.7 428.7 557.3 450 557.2C471.3 557 492.7 561 514.2 558.3C535.7 555.7 557.3 546.3 578.8 544.2C600.3 542 621.7 547 643 547.8C664.3 548.7 685.7 545.3 707 546.2C728.3 547 749.7 552 771.2 552C792.7 552 814.3 547 835.8 543.8C857.3 540.7 878.7 539.3 889.3 538.7L900 538L900 676L889.3 676C878.7 676 857.3 676 835.8 676C814.3 676 792.7 676 771.2 676C749.7 676 728.3 676 707 676C685.7 676 664.3 676 643 676C621.7 676 600.3 676 578.8 676C557.3 676 535.7 676 514.2 676C492.7 676 471.3 676 450 676C428.7 676 407.3 676 385.8 676C364.3 676 342.7 676 321.2 676C299.7 676 278.3 676 257 676C235.7 676 214.3 676 193 676C171.7 676 150.3 676 128.8 676C107.3 676 85.7 676 64.2 676C42.7 676 21.3 676 10.7 676L0 676Z" fill="#a2d2f3"></path><path d="M0 579L10.7 575.8C21.3 572.7 42.7 566.3 64.2 563.7C85.7 561 107.3 562 128.8 563.3C150.3 564.7 171.7 566.3 193 566.3C214.3 566.3 235.7 564.7 257 565.5C278.3 566.3 299.7 569.7 321.2 570.5C342.7 571.3 364.3 569.7 385.8 569.8C407.3 570 428.7 572 450 572.7C471.3 573.3 492.7 572.7 514.2 573.7C535.7 574.7 557.3 577.3 578.8 575.8C600.3 574.3 621.7 568.7 643 566.3C664.3 564 685.7 565 707 567.3C728.3 569.7 749.7 573.3 771.2 573.2C792.7 573 814.3 569 835.8 569.3C857.3 569.7 878.7 574.3 889.3 576.7L900 579L900 676L889.3 676C878.7 676 857.3 676 835.8 676C814.3 676 792.7 676 771.2 676C749.7 676 728.3 676 707 676C685.7 676 664.3 676 643 676C621.7 676 600.3 676 578.8 676C557.3 676 535.7 676 514.2 676C492.7 676 471.3 676 450 676C428.7 676 407.3 676 385.8 676C364.3 676 342.7 676 321.2 676C299.7 676 278.3 676 257 676C235.7 676 214.3 676 193 676C171.7 676 150.3 676 128.8 676C107.3 676 85.7 676 64.2 676C42.7 676 21.3 676 10.7 676L0 676Z" fill="#aecef5"></path><path d="M0 590L10.7 590.7C21.3 591.3 42.7 592.7 64.2 591C85.7 589.3 107.3 584.7 128.8 583.8C150.3 583 171.7 586 193 587C214.3 588 235.7 587 257 585C278.3 583 299.7 580 321.2 582.3C342.7 584.7 364.3 592.3 385.8 593.7C407.3 595 428.7 590 450 587.8C471.3 585.7 492.7 586.3 514.2 588.3C535.7 590.3 557.3 593.7 578.8 595.5C600.3 597.3 621.7 597.7 643 596.5C664.3 595.3 685.7 592.7 707 593C728.3 593.3 749.7 596.7 771.2 597.5C792.7 598.3 814.3 596.7 835.8 593.2C857.3 589.7 878.7 584.3 889.3 581.7L900 579L900 676L889.3 676C878.7 676 857.3 676 835.8 676C814.3 676 792.7 676 771.2 676C749.7 676 728.3 676 707 676C685.7 676 664.3 676 643 676C621.7 676 600.3 676 578.8 676C557.3 676 535.7 676 514.2 676C492.7 676 471.3 676 450 676C428.7 676 407.3 676 385.8 676C364.3 676 342.7 676 321.2 676C299.7 676 278.3 676 257 676C235.7 676 214.3 676 193 676C171.7 676 150.3 676 128.8 676C107.3 676 85.7 676 64.2 676C42.7 676 21.3 676 10.7 676L0 676Z" fill="#bccaf5"></path><path d="M0 610L10.7 610.3C21.3 610.7 42.7 611.3 64.2 610C85.7 608.7 107.3 605.3 128.8 605C150.3 604.7 171.7 607.3 193 609.3C214.3 611.3 235.7 612.7 257 612.3C278.3 612 299.7 610 321.2 607.8C342.7 605.7 364.3 603.3 385.8 604.7C407.3 606 428.7 611 450 611.2C471.3 611.3 492.7 606.7 514.2 604.3C535.7 602 557.3 602 578.8 602.8C600.3 603.7 621.7 605.3 643 606.8C664.3 608.3 685.7 609.7 707 609.7C728.3 609.7 749.7 608.3 771.2 607.7C792.7 607 814.3 607 835.8 606.2C857.3 605.3 878.7 603.7 889.3 602.8L900 602L900 676L889.3 676C878.7 676 857.3 676 835.8 676C814.3 676 792.7 676 771.2 676C749.7 676 728.3 676 707 676C685.7 676 664.3 676 643 676C621.7 676 600.3 676 578.8 676C557.3 676 535.7 676 514.2 676C492.7 676 471.3 676 450 676C428.7 676 407.3 676 385.8 676C364.3 676 342.7 676 321.2 676C299.7 676 278.3 676 257 676C235.7 676 214.3 676 193 676C171.7 676 150.3 676 128.8 676C107.3 676 85.7 676 64.2 676C42.7 676 21.3 676 10.7 676L0 676Z" fill="#cac6f1"></path><path d="M0 627L10.7 626.3C21.3 625.7 42.7 624.3 64.2 623.5C85.7 622.7 107.3 622.3 128.8 624.2C150.3 626 171.7 630 193 629.8C214.3 629.7 235.7 625.3 257 624.7C278.3 624 299.7 627 321.2 628.7C342.7 630.3 364.3 630.7 385.8 629.7C407.3 628.7 428.7 626.3 450 626.7C471.3 627 492.7 630 514.2 631.7C535.7 633.3 557.3 633.7 578.8 633.3C600.3 633 621.7 632 643 631.8C664.3 631.7 685.7 632.3 707 630.7C728.3 629 749.7 625 771.2 624.2C792.7 623.3 814.3 625.7 835.8 627C857.3 628.3 878.7 628.7 889.3 628.8L900 629L900 676L889.3 676C878.7 676 857.3 676 835.8 676C814.3 676 792.7 676 771.2 676C749.7 676 728.3 676 707 676C685.7 676 664.3 676 643 676C621.7 676 600.3 676 578.8 676C557.3 676 535.7 676 514.2 676C492.7 676 471.3 676 450 676C428.7 676 407.3 676 385.8 676C364.3 676 342.7 676 321.2 676C299.7 676 278.3 676 257 676C235.7 676 214.3 676 193 676C171.7 676 150.3 676 128.8 676C107.3 676 85.7 676 64.2 676C42.7 676 21.3 676 10.7 676L0 676Z" fill="#d7c1ea"></path><path d="M0 645L10.7 644.5C21.3 644 42.7 643 64.2 642C85.7 641 107.3 640 128.8 639.7C150.3 639.3 171.7 639.7 193 641.3C214.3 643 235.7 646 257 646.2C278.3 646.3 299.7 643.7 321.2 643C342.7 642.3 364.3 643.7 385.8 644.7C407.3 645.7 428.7 646.3 450 646.3C471.3 646.3 492.7 645.7 514.2 645.2C535.7 644.7 557.3 644.3 578.8 644C600.3 643.7 621.7 643.3 643 642.8C664.3 642.3 685.7 641.7 707 642.5C728.3 643.3 749.7 645.7 771.2 646C792.7 646.3 814.3 644.7 835.8 643.7C857.3 642.7 878.7 642.3 889.3 642.2L900 642L900 676L889.3 676C878.7 676 857.3 676 835.8 676C814.3 676 792.7 676 771.2 676C749.7 676 728.3 676 707 676C685.7 676 664.3 676 643 676C621.7 676 600.3 676 578.8 676C557.3 676 535.7 676 514.2 676C492.7 676 471.3 676 450 676C428.7 676 407.3 676 385.8 676C364.3 676 342.7 676 321.2 676C299.7 676 278.3 676 257 676C235.7 676 214.3 676 193 676C171.7 676 150.3 676 128.8 676C107.3 676 85.7 676 64.2 676C42.7 676 21.3 676 10.7 676L0 676Z" fill="#e3bde1"></path></svg>