<svg id="visual" viewBox="0 0 900 300" width="900" height="300" xmlns="http://www.w3.org/2000/svg" xmlns:xlink="http://www.w3.org/1999/xlink" version="1.1"><path d="M0 251L10.7 250.2C21.3 249.3 42.7 247.7 64.2 248.8C85.7 250 107.3 254 128.8 252.7C150.3 251.3 171.7 244.7 193 242.7C214.3 240.7 235.7 243.3 257 245C278.3 246.7 299.7 247.3 321.2 246.2C342.7 245 364.3 242 385.8 242.5C407.3 243 428.7 247 450 249C471.3 251 492.7 251 514.2 250.7C535.7 250.3 557.3 249.7 578.8 248.2C600.3 246.7 621.7 244.3 643 245.8C664.3 247.3 685.7 252.7 707 255.7C728.3 258.7 749.7 259.3 771.2 258.2C792.7 257 814.3 254 835.8 251.2C857.3 248.3 878.7 245.7 889.3 244.3L900 243L900 301L889.3 301C878.7 301 857.3 301 835.8 301C814.3 301 792.7 301 771.2 301C749.7 301 728.3 301 707 301C685.7 301 664.3 301 643 301C621.7 301 600.3 301 578.8 301C557.3 301 535.7 301 514.2 301C492.7 301 471.3 301 450 301C428.7 301 407.3 301 385.8 301C364.3 301 342.7 301 321.2 301C299.7 301 278.3 301 257 301C235.7 301 214.3 301 193 301C171.7 301 150.3 301 128.8 301C107.3 301 85.7 301 64.2 301C42.7 301 21.3 301 10.7 301L0 301Z" fill="#a7d781"></path><path d="M0 260L10.7 261.2C21.3 262.3 42.7 264.7 64.2 263.2C85.7 261.7 107.3 256.3 128.8 255.2C150.3 254 171.7 257 193 259.2C214.3 261.3 235.7 262.7 257 261.3C278.3 260 299.7 256 321.2 255.8C342.7 255.7 364.3 259.3 385.8 261.2C407.3 263 428.7 263 450 262.7C471.3 262.3 492.7 261.7 514.2 260C535.7 258.3 557.3 255.7 578.8 256C600.3 256.3 621.7 259.7 643 262C664.3 264.3 685.7 265.7 707 265.5C728.3 265.3 749.7 263.7 771.2 262C792.7 260.3 814.3 258.7 835.8 258.7C857.3 258.7 878.7 260.3 889.3 261.2L900 262L900 301L889.3 301C878.7 301 857.3 301 835.8 301C814.3 301 792.7 301 771.2 301C749.7 301 728.3 301 707 301C685.7 301 664.3 301 643 301C621.7 301 600.3 301 578.8 301C557.3 301 535.7 301 514.2 301C492.7 301 471.3 301 450 301C428.7 301 407.3 301 385.8 301C364.3 301 342.7 301 321.2 301C299.7 301 278.3 301 257 301C235.7 301 214.3 301 193 301C171.7 301 150.3 301 128.8 301C107.3 301 85.7 301 64.2 301C42.7 301 21.3 301 10.7 301L0 301Z" fill="#72ddbb"></path><path d="M0 276L10.7 276.2C21.3 276.3 42.7 276.7 64.2 276.8C85.7 277 107.3 277 128.8 276.7C150.3 276.3 171.7 275.7 193 274.2C214.3 272.7 235.7 270.3 257 268.8C278.3 267.3 299.7 266.7 321.2 266.3C342.7 266 364.3 266 385.8 265.7C407.3 265.3 428.7 264.7 450 265.3C471.3 266 492.7 268 514.2 268.3C535.7 268.7 557.3 267.3 578.8 266.3C600.3 265.3 621.7 264.7 643 264.5C664.3 264.3 685.7 264.7 707 264.7C728.3 264.7 749.7 264.3 771.2 265.8C792.7 267.3 814.3 270.7 835.8 271.3C857.3 272 878.7 270 889.3 269L900 268L900 301L889.3 301C878.7 301 857.3 301 835.8 301C814.3 301 792.7 301 771.2 301C749.7 301 728.3 301 707 301C685.7 301 664.3 301 643 301C621.7 301 600.3 301 578.8 301C557.3 301 535.7 301 514.2 301C492.7 301 471.3 301 450 301C428.7 301 407.3 301 385.8 301C364.3 301 342.7 301 321.2 301C299.7 301 278.3 301 257 301C235.7 301 214.3 301 193 301C171.7 301 150.3 301 128.8 301C107.3 301 85.7 301 64.2 301C42.7 301 21.3 301 10.7 301L0 301Z" fill="#71dbe7"></path><path d="M0 285L10.7 285.2C21.3 285.3 42.7 285.7 64.2 285.2C85.7 284.7 107.3 283.3 128.8 282.8C150.3 282.3 171.7 282.7 193 283C214.3 283.3 235.7 283.7 257 283.8C278.3 284 299.7 284 321.2 284.3C342.7 284.7 364.3 285.3 385.8 285.7C407.3 286 428.7 286 450 285.3C471.3 284.7 492.7 283.3 514.2 283.3C535.7 283.3 557.3 284.7 578.8 285.2C600.3 285.7 621.7 285.3 643 284C664.3 282.7 685.7 280.3 707 279.5C728.3 278.7 749.7 279.3 771.2 280.3C792.7 281.3 814.3 282.7 835.8 283.5C857.3 284.3 878.7 284.7 889.3 284.8L900 285L900 301L889.3 301C878.7 301 857.3 301 835.8 301C814.3 301 792.7 301 771.2 301C749.7 301 728.3 301 707 301C685.7 301 664.3 301 643 301C621.7 301 600.3 301 578.8 301C557.3 301 535.7 301 514.2 301C492.7 301 471.3 301 450 301C428.7 301 407.3 301 385.8 301C364.3 301 342.7 301 321.2 301C299.7 301 278.3 301 257 301C235.7 301 214.3 301 193 301C171.7 301 150.3 301 128.8 301C107.3 301 85.7 301 64.2 301C42.7 301 21.3 301 10.7 301L0 301Z" fill="#a2d2f3"></path></svg>