<svg id="visual" viewBox="0 0 900 675" width="900" height="675" xmlns="http://www.w3.org/2000/svg" xmlns:xlink="http://www.w3.org/1999/xlink" version="1.1"><path d="M0 541L10.7 540.3C21.3 539.7 42.7 538.3 64.2 539C85.7 539.7 107.3 542.3 128.8 547.3C150.3 552.3 171.7 559.7 193 563C214.3 566.3 235.7 565.7 257 561C278.3 556.3 299.7 547.7 321.2 546.7C342.7 545.7 364.3 552.3 385.8 554.2C407.3 556 428.7 553 450 550.8C471.3 548.7 492.7 547.3 514.2 549.7C535.7 552 557.3 558 578.8 561.2C600.3 564.3 621.7 564.7 643 561.5C664.3 558.3 685.7 551.7 707 550.7C728.3 549.7 749.7 554.3 771.2 553.5C792.7 552.7 814.3 546.3 835.8 545.7C857.3 545 878.7 550 889.3 552.5L900 555L900 676L889.3 676C878.7 676 857.3 676 835.8 676C814.3 676 792.7 676 771.2 676C749.7 676 728.3 676 707 676C685.7 676 664.3 676 643 676C621.7 676 600.3 676 578.8 676C557.3 676 535.7 676 514.2 676C492.7 676 471.3 676 450 676C428.7 676 407.3 676 385.8 676C364.3 676 342.7 676 321.2 676C299.7 676 278.3 676 257 676C235.7 676 214.3 676 193 676C171.7 676 150.3 676 128.8 676C107.3 676 85.7 676 64.2 676C42.7 676 21.3 676 10.7 676L0 676Z" fill="#a7d781"></path><path d="M0 576L10.7 573.2C21.3 570.3 42.7 564.7 64.2 565.7C85.7 566.7 107.3 574.3 128.8 575.3C150.3 576.3 171.7 570.7 193 566.8C214.3 563 235.7 561 257 561.3C278.3 561.7 299.7 564.3 321.2 566.3C342.7 568.3 364.3 569.7 385.8 569.5C407.3 569.3 428.7 567.7 450 565.2C471.3 562.7 492.7 559.3 514.2 560C535.7 560.7 557.3 565.3 578.8 567.3C600.3 569.3 621.7 568.7 643 570.2C664.3 571.7 685.7 575.3 707 577.5C728.3 579.7 749.7 580.3 771.2 577.7C792.7 575 814.3 569 835.8 567.3C857.3 565.7 878.7 568.3 889.3 569.7L900 571L900 676L889.3 676C878.7 676 857.3 676 835.8 676C814.3 676 792.7 676 771.2 676C749.7 676 728.3 676 707 676C685.7 676 664.3 676 643 676C621.7 676 600.3 676 578.8 676C557.3 676 535.7 676 514.2 676C492.7 676 471.3 676 450 676C428.7 676 407.3 676 385.8 676C364.3 676 342.7 676 321.2 676C299.7 676 278.3 676 257 676C235.7 676 214.3 676 193 676C171.7 676 150.3 676 128.8 676C107.3 676 85.7 676 64.2 676C42.7 676 21.3 676 10.7 676L0 676Z" fill="#84dca4"></path><path d="M0 595L10.7 593.2C21.3 591.3 42.7 587.7 64.2 586.8C85.7 586 107.3 588 128.8 589.5C150.3 591 171.7 592 193 590.7C214.3 589.3 235.7 585.7 257 584C278.3 582.3 299.7 582.7 321.2 585.5C342.7 588.3 364.3 593.7 385.8 596C407.3 598.3 428.7 597.7 450 594.8C471.3 592 492.7 587 514.2 584.5C535.7 582 557.3 582 578.8 582C600.3 582 621.7 582 643 584.3C664.3 586.7 685.7 591.3 707 593.2C728.3 595 749.7 594 771.2 591.7C792.7 589.3 814.3 585.7 835.8 585.7C857.3 585.7 878.7 589.3 889.3 591.2L900 593L900 676L889.3 676C878.7 676 857.3 676 835.8 676C814.3 676 792.7 676 771.2 676C749.7 676 728.3 676 707 676C685.7 676 664.3 676 643 676C621.7 676 600.3 676 578.8 676C557.3 676 535.7 676 514.2 676C492.7 676 471.3 676 450 676C428.7 676 407.3 676 385.8 676C364.3 676 342.7 676 321.2 676C299.7 676 278.3 676 257 676C235.7 676 214.3 676 193 676C171.7 676 150.3 676 128.8 676C107.3 676 85.7 676 64.2 676C42.7 676 21.3 676 10.7 676L0 676Z" fill="#6cddc6"></path><path d="M0 606L10.7 607.5C21.3 609 42.7 612 64.2 613.8C85.7 615.7 107.3 616.3 128.8 614.7C150.3 613 171.7 609 193 608.7C214.3 608.3 235.7 611.7 257 613C278.3 614.3 299.7 613.7 321.2 611.2C342.7 608.7 364.3 604.3 385.8 602.7C407.3 601 428.7 602 450 603.8C471.3 605.7 492.7 608.3 514.2 609.2C535.7 610 557.3 609 578.8 607.3C600.3 605.7 621.7 603.3 643 602.5C664.3 601.7 685.7 602.3 707 604.2C728.3 606 749.7 609 771.2 608.3C792.7 607.7 814.3 603.3 835.8 601.8C857.3 600.3 878.7 601.7 889.3 602.3L900 603L900 676L889.3 676C878.7 676 857.3 676 835.8 676C814.3 676 792.7 676 771.2 676C749.7 676 728.3 676 707 676C685.7 676 664.3 676 643 676C621.7 676 600.3 676 578.8 676C557.3 676 535.7 676 514.2 676C492.7 676 471.3 676 450 676C428.7 676 407.3 676 385.8 676C364.3 676 342.7 676 321.2 676C299.7 676 278.3 676 257 676C235.7 676 214.3 676 193 676C171.7 676 150.3 676 128.8 676C107.3 676 85.7 676 64.2 676C42.7 676 21.3 676 10.7 676L0 676Z" fill="#6bdce0"></path><path d="M0 621L10.7 622.8C21.3 624.7 42.7 628.3 64.2 630.2C85.7 632 107.3 632 128.8 630.2C150.3 628.3 171.7 624.7 193 624.8C214.3 625 235.7 629 257 629.8C278.3 630.7 299.7 628.3 321.2 628.3C342.7 628.3 364.3 630.7 385.8 631.2C407.3 631.7 428.7 630.3 450 629.5C471.3 628.7 492.7 628.3 514.2 628.5C535.7 628.7 557.3 629.3 578.8 629.3C600.3 629.3 621.7 628.7 643 627.2C664.3 625.7 685.7 623.3 707 621.8C728.3 620.3 749.7 619.7 771.2 620.7C792.7 621.7 814.3 624.3 835.8 625.8C857.3 627.3 878.7 627.7 889.3 627.8L900 628L900 676L889.3 676C878.7 676 857.3 676 835.8 676C814.3 676 792.7 676 771.2 676C749.7 676 728.3 676 707 676C685.7 676 664.3 676 643 676C621.7 676 600.3 676 578.8 676C557.3 676 535.7 676 514.2 676C492.7 676 471.3 676 450 676C428.7 676 407.3 676 385.8 676C364.3 676 342.7 676 321.2 676C299.7 676 278.3 676 257 676C235.7 676 214.3 676 193 676C171.7 676 150.3 676 128.8 676C107.3 676 85.7 676 64.2 676C42.7 676 21.3 676 10.7 676L0 676Z" fill="#83d7f0"></path><path d="M0 649L10.7 647.8C21.3 646.7 42.7 644.3 64.2 642.8C85.7 641.3 107.3 640.7 128.8 640.5C150.3 640.3 171.7 640.7 193 641.7C214.3 642.7 235.7 644.3 257 644.8C278.3 645.3 299.7 644.7 321.2 644.7C342.7 644.7 364.3 645.3 385.8 645.7C407.3 646 428.7 646 450 646.8C471.3 647.7 492.7 649.3 514.2 649.7C535.7 650 557.3 649 578.8 648.5C600.3 648 621.7 648 643 648.3C664.3 648.7 685.7 649.3 707 649.2C728.3 649 749.7 648 771.2 646.5C792.7 645 814.3 643 835.8 643.2C857.3 643.3 878.7 645.7 889.3 646.8L900 648L900 676L889.3 676C878.7 676 857.3 676 835.8 676C814.3 676 792.7 676 771.2 676C749.7 676 728.3 676 707 676C685.7 676 664.3 676 643 676C621.7 676 600.3 676 578.8 676C557.3 676 535.7 676 514.2 676C492.7 676 471.3 676 450 676C428.7 676 407.3 676 385.8 676C364.3 676 342.7 676 321.2 676C299.7 676 278.3 676 257 676C235.7 676 214.3 676 193 676C171.7 676 150.3 676 128.8 676C107.3 676 85.7 676 64.2 676C42.7 676 21.3 676 10.7 676L0 676Z" fill="#a2d2f3"></path></svg>