<svg id="visual" viewBox="0 0 900 675" width="900" height="675" xmlns="http://www.w3.org/2000/svg" xmlns:xlink="http://www.w3.org/1999/xlink" version="1.1"><path d="M0 553L10.7 550.8C21.3 548.7 42.7 544.3 64.2 542C85.7 539.7 107.3 539.3 128.8 541.7C150.3 544 171.7 549 193 553.5C214.3 558 235.7 562 257 562.7C278.3 563.3 299.7 560.7 321.2 555.8C342.7 551 364.3 544 385.8 541.3C407.3 538.7 428.7 540.3 450 541.2C471.3 542 492.7 542 514.2 542.3C535.7 542.7 557.3 543.3 578.8 543.5C600.3 543.7 621.7 543.3 643 546C664.3 548.7 685.7 554.3 707 554C728.3 553.7 749.7 547.3 771.2 545.5C792.7 543.7 814.3 546.3 835.8 548C857.3 549.7 878.7 550.3 889.3 550.7L900 551L900 676L889.3 676C878.7 676 857.3 676 835.8 676C814.3 676 792.7 676 771.2 676C749.7 676 728.3 676 707 676C685.7 676 664.3 676 643 676C621.7 676 600.3 676 578.8 676C557.3 676 535.7 676 514.2 676C492.7 676 471.3 676 450 676C428.7 676 407.3 676 385.8 676C364.3 676 342.7 676 321.2 676C299.7 676 278.3 676 257 676C235.7 676 214.3 676 193 676C171.7 676 150.3 676 128.8 676C107.3 676 85.7 676 64.2 676C42.7 676 21.3 676 10.7 676L0 676Z" fill="#fdd8af"></path><path d="M0 559L10.7 559C21.3 559 42.7 559 64.2 562C85.7 565 107.3 571 128.8 570.8C150.3 570.7 171.7 564.3 193 563.8C214.3 563.3 235.7 568.7 257 571.3C278.3 574 299.7 574 321.2 572.5C342.7 571 364.3 568 385.8 565.3C407.3 562.7 428.7 560.3 450 559.2C471.3 558 492.7 558 514.2 560.8C535.7 563.7 557.3 569.3 578.8 571C600.3 572.7 621.7 570.3 643 569.8C664.3 569.3 685.7 570.7 707 568.8C728.3 567 749.7 562 771.2 559.7C792.7 557.3 814.3 557.7 835.8 558.7C857.3 559.7 878.7 561.3 889.3 562.2L900 563L900 676L889.3 676C878.7 676 857.3 676 835.8 676C814.3 676 792.7 676 771.2 676C749.7 676 728.3 676 707 676C685.7 676 664.3 676 643 676C621.7 676 600.3 676 578.8 676C557.3 676 535.7 676 514.2 676C492.7 676 471.3 676 450 676C428.7 676 407.3 676 385.8 676C364.3 676 342.7 676 321.2 676C299.7 676 278.3 676 257 676C235.7 676 214.3 676 193 676C171.7 676 150.3 676 128.8 676C107.3 676 85.7 676 64.2 676C42.7 676 21.3 676 10.7 676L0 676Z" fill="#ffb8a0"></path><path d="M0 582L10.7 585C21.3 588 42.7 594 64.2 593.8C85.7 593.7 107.3 587.3 128.8 585C150.3 582.7 171.7 584.3 193 584.8C214.3 585.3 235.7 584.7 257 583.8C278.3 583 299.7 582 321.2 584C342.7 586 364.3 591 385.8 591.7C407.3 592.3 428.7 588.7 450 588.5C471.3 588.3 492.7 591.7 514.2 593.2C535.7 594.7 557.3 594.3 578.8 591.3C600.3 588.3 621.7 582.7 643 581C664.3 579.3 685.7 581.7 707 584.2C728.3 586.7 749.7 589.3 771.2 590.7C792.7 592 814.3 592 835.8 591C857.3 590 878.7 588 889.3 587L900 586L900 676L889.3 676C878.7 676 857.3 676 835.8 676C814.3 676 792.7 676 771.2 676C749.7 676 728.3 676 707 676C685.7 676 664.3 676 643 676C621.7 676 600.3 676 578.8 676C557.3 676 535.7 676 514.2 676C492.7 676 471.3 676 450 676C428.7 676 407.3 676 385.8 676C364.3 676 342.7 676 321.2 676C299.7 676 278.3 676 257 676C235.7 676 214.3 676 193 676C171.7 676 150.3 676 128.8 676C107.3 676 85.7 676 64.2 676C42.7 676 21.3 676 10.7 676L0 676Z" fill="#ff98a6"></path><path d="M0 606L10.7 607C21.3 608 42.7 610 64.2 610.3C85.7 610.7 107.3 609.3 128.8 607.2C150.3 605 171.7 602 193 600.3C214.3 598.7 235.7 598.3 257 601.2C278.3 604 299.7 610 321.2 612.3C342.7 614.7 364.3 613.3 385.8 611.7C407.3 610 428.7 608 450 607.5C471.3 607 492.7 608 514.2 607C535.7 606 557.3 603 578.8 602.8C600.3 602.7 621.7 605.3 643 606.3C664.3 607.3 685.7 606.7 707 605.8C728.3 605 749.7 604 771.2 604C792.7 604 814.3 605 835.8 605.5C857.3 606 878.7 606 889.3 606L900 606L900 676L889.3 676C878.7 676 857.3 676 835.8 676C814.3 676 792.7 676 771.2 676C749.7 676 728.3 676 707 676C685.7 676 664.3 676 643 676C621.7 676 600.3 676 578.8 676C557.3 676 535.7 676 514.2 676C492.7 676 471.3 676 450 676C428.7 676 407.3 676 385.8 676C364.3 676 342.7 676 321.2 676C299.7 676 278.3 676 257 676C235.7 676 214.3 676 193 676C171.7 676 150.3 676 128.8 676C107.3 676 85.7 676 64.2 676C42.7 676 21.3 676 10.7 676L0 676Z" fill="#e881bd"></path><path d="M0 625L10.7 624.3C21.3 623.7 42.7 622.3 64.2 622.8C85.7 623.3 107.3 625.7 128.8 627.2C150.3 628.7 171.7 629.3 193 629.8C214.3 630.3 235.7 630.7 257 630.8C278.3 631 299.7 631 321.2 630.5C342.7 630 364.3 629 385.8 628.7C407.3 628.3 428.7 628.7 450 628.2C471.3 627.7 492.7 626.3 514.2 625.2C535.7 624 557.3 623 578.8 623.7C600.3 624.3 621.7 626.7 643 628.5C664.3 630.3 685.7 631.7 707 632.3C728.3 633 749.7 633 771.2 631.7C792.7 630.3 814.3 627.7 835.8 626.5C857.3 625.3 878.7 625.7 889.3 625.8L900 626L900 676L889.3 676C878.7 676 857.3 676 835.8 676C814.3 676 792.7 676 771.2 676C749.7 676 728.3 676 707 676C685.7 676 664.3 676 643 676C621.7 676 600.3 676 578.8 676C557.3 676 535.7 676 514.2 676C492.7 676 471.3 676 450 676C428.7 676 407.3 676 385.8 676C364.3 676 342.7 676 321.2 676C299.7 676 278.3 676 257 676C235.7 676 214.3 676 193 676C171.7 676 150.3 676 128.8 676C107.3 676 85.7 676 64.2 676C42.7 676 21.3 676 10.7 676L0 676Z" fill="#ae79d9"></path><path d="M0 642L10.7 643C21.3 644 42.7 646 64.2 645.7C85.7 645.3 107.3 642.7 128.8 641.3C150.3 640 171.7 640 193 640.8C214.3 641.7 235.7 643.3 257 645C278.3 646.7 299.7 648.3 321.2 648.2C342.7 648 364.3 646 385.8 645.5C407.3 645 428.7 646 450 646.3C471.3 646.7 492.7 646.3 514.2 646C535.7 645.7 557.3 645.3 578.8 644.8C600.3 644.3 621.7 643.7 643 644C664.3 644.3 685.7 645.7 707 645.8C728.3 646 749.7 645 771.2 645C792.7 645 814.3 646 835.8 645.5C857.3 645 878.7 643 889.3 642L900 641L900 676L889.3 676C878.7 676 857.3 676 835.8 676C814.3 676 792.7 676 771.2 676C749.7 676 728.3 676 707 676C685.7 676 664.3 676 643 676C621.7 676 600.3 676 578.8 676C557.3 676 535.7 676 514.2 676C492.7 676 471.3 676 450 676C428.7 676 407.3 676 385.8 676C364.3 676 342.7 676 321.2 676C299.7 676 278.3 676 257 676C235.7 676 214.3 676 193 676C171.7 676 150.3 676 128.8 676C107.3 676 85.7 676 64.2 676C42.7 676 21.3 676 10.7 676L0 676Z" fill="#1c7cea"></path></svg>