<svg id="visual" viewBox="0 0 900 675" width="900" height="675" xmlns="http://www.w3.org/2000/svg" xmlns:xlink="http://www.w3.org/1999/xlink" version="1.1"><path d="M0 560L10.7 558.8C21.3 557.7 42.7 555.3 64.2 554.3C85.7 553.3 107.3 553.7 128.8 552.5C150.3 551.3 171.7 548.7 193 549.5C214.3 550.3 235.7 554.7 257 558C278.3 561.3 299.7 563.7 321.2 563C342.7 562.3 364.3 558.7 385.8 556.8C407.3 555 428.7 555 450 553.3C471.3 551.7 492.7 548.3 514.2 547.7C535.7 547 557.3 549 578.8 548.2C600.3 547.3 621.7 543.7 643 543.7C664.3 543.7 685.7 547.3 707 548.8C728.3 550.3 749.7 549.7 771.2 547.8C792.7 546 814.3 543 835.8 545.7C857.3 548.3 878.7 556.7 889.3 560.8L900 565L900 676L889.3 676C878.7 676 857.3 676 835.8 676C814.3 676 792.7 676 771.2 676C749.7 676 728.3 676 707 676C685.7 676 664.3 676 643 676C621.7 676 600.3 676 578.8 676C557.3 676 535.7 676 514.2 676C492.7 676 471.3 676 450 676C428.7 676 407.3 676 385.8 676C364.3 676 342.7 676 321.2 676C299.7 676 278.3 676 257 676C235.7 676 214.3 676 193 676C171.7 676 150.3 676 128.8 676C107.3 676 85.7 676 64.2 676C42.7 676 21.3 676 10.7 676L0 676Z" fill="#fdd8af"></path><path d="M0 557L10.7 561.3C21.3 565.7 42.7 574.3 64.2 578.5C85.7 582.7 107.3 582.3 128.8 579.5C150.3 576.7 171.7 571.3 193 568.3C214.3 565.3 235.7 564.7 257 567.5C278.3 570.3 299.7 576.7 321.2 578.2C342.7 579.7 364.3 576.3 385.8 574.8C407.3 573.3 428.7 573.7 450 573C471.3 572.3 492.7 570.7 514.2 568.2C535.7 565.7 557.3 562.3 578.8 561.7C600.3 561 621.7 563 643 566C664.3 569 685.7 573 707 572.5C728.3 572 749.7 567 771.2 564.8C792.7 562.7 814.3 563.3 835.8 566.2C857.3 569 878.7 574 889.3 576.5L900 579L900 676L889.3 676C878.7 676 857.3 676 835.8 676C814.3 676 792.7 676 771.2 676C749.7 676 728.3 676 707 676C685.7 676 664.3 676 643 676C621.7 676 600.3 676 578.8 676C557.3 676 535.7 676 514.2 676C492.7 676 471.3 676 450 676C428.7 676 407.3 676 385.8 676C364.3 676 342.7 676 321.2 676C299.7 676 278.3 676 257 676C235.7 676 214.3 676 193 676C171.7 676 150.3 676 128.8 676C107.3 676 85.7 676 64.2 676C42.7 676 21.3 676 10.7 676L0 676Z" fill="#f4d6a0"></path><path d="M0 595L10.7 595.2C21.3 595.3 42.7 595.7 64.2 592.8C85.7 590 107.3 584 128.8 582.2C150.3 580.3 171.7 582.7 193 583.2C214.3 583.7 235.7 582.3 257 582.7C278.3 583 299.7 585 321.2 587C342.7 589 364.3 591 385.8 590.3C407.3 589.7 428.7 586.3 450 586C471.3 585.7 492.7 588.3 514.2 590.7C535.7 593 557.3 595 578.8 595.7C600.3 596.3 621.7 595.7 643 593.3C664.3 591 685.7 587 707 585.8C728.3 584.7 749.7 586.3 771.2 585.5C792.7 584.7 814.3 581.3 835.8 582.3C857.3 583.3 878.7 588.7 889.3 591.3L900 594L900 676L889.3 676C878.7 676 857.3 676 835.8 676C814.3 676 792.7 676 771.2 676C749.7 676 728.3 676 707 676C685.7 676 664.3 676 643 676C621.7 676 600.3 676 578.8 676C557.3 676 535.7 676 514.2 676C492.7 676 471.3 676 450 676C428.7 676 407.3 676 385.8 676C364.3 676 342.7 676 321.2 676C299.7 676 278.3 676 257 676C235.7 676 214.3 676 193 676C171.7 676 150.3 676 128.8 676C107.3 676 85.7 676 64.2 676C42.7 676 21.3 676 10.7 676L0 676Z" fill="#e6d693"></path><path d="M0 616L10.7 615.5C21.3 615 42.7 614 64.2 612.7C85.7 611.3 107.3 609.7 128.8 610.2C150.3 610.7 171.7 613.3 193 612C214.3 610.7 235.7 605.3 257 603C278.3 600.7 299.7 601.3 321.2 602C342.7 602.7 364.3 603.3 385.8 605.8C407.3 608.3 428.7 612.7 450 614.3C471.3 616 492.7 615 514.2 613.3C535.7 611.7 557.3 609.3 578.8 607.8C600.3 606.3 621.7 605.7 643 604.2C664.3 602.7 685.7 600.3 707 601.2C728.3 602 749.7 606 771.2 607.3C792.7 608.7 814.3 607.3 835.8 605.5C857.3 603.7 878.7 601.3 889.3 600.2L900 599L900 676L889.3 676C878.7 676 857.3 676 835.8 676C814.3 676 792.7 676 771.2 676C749.7 676 728.3 676 707 676C685.7 676 664.3 676 643 676C621.7 676 600.3 676 578.8 676C557.3 676 535.7 676 514.2 676C492.7 676 471.3 676 450 676C428.7 676 407.3 676 385.8 676C364.3 676 342.7 676 321.2 676C299.7 676 278.3 676 257 676C235.7 676 214.3 676 193 676C171.7 676 150.3 676 128.8 676C107.3 676 85.7 676 64.2 676C42.7 676 21.3 676 10.7 676L0 676Z" fill="#d5d689"></path><path d="M0 622L10.7 623C21.3 624 42.7 626 64.2 626.2C85.7 626.3 107.3 624.7 128.8 623.7C150.3 622.7 171.7 622.3 193 623.2C214.3 624 235.7 626 257 626.3C278.3 626.7 299.7 625.3 321.2 624C342.7 622.7 364.3 621.3 385.8 620.5C407.3 619.7 428.7 619.3 450 620.3C471.3 621.3 492.7 623.7 514.2 624.8C535.7 626 557.3 626 578.8 627.3C600.3 628.7 621.7 631.3 643 631.5C664.3 631.7 685.7 629.3 707 628.2C728.3 627 749.7 627 771.2 626.8C792.7 626.7 814.3 626.3 835.8 626.5C857.3 626.7 878.7 627.3 889.3 627.7L900 628L900 676L889.3 676C878.7 676 857.3 676 835.8 676C814.3 676 792.7 676 771.2 676C749.7 676 728.3 676 707 676C685.7 676 664.3 676 643 676C621.7 676 600.3 676 578.8 676C557.3 676 535.7 676 514.2 676C492.7 676 471.3 676 450 676C428.7 676 407.3 676 385.8 676C364.3 676 342.7 676 321.2 676C299.7 676 278.3 676 257 676C235.7 676 214.3 676 193 676C171.7 676 150.3 676 128.8 676C107.3 676 85.7 676 64.2 676C42.7 676 21.3 676 10.7 676L0 676Z" fill="#c0d783"></path><path d="M0 642L10.7 642.8C21.3 643.7 42.7 645.3 64.2 645.5C85.7 645.7 107.3 644.3 128.8 644.8C150.3 645.3 171.7 647.7 193 647.2C214.3 646.7 235.7 643.3 257 643.2C278.3 643 299.7 646 321.2 647C342.7 648 364.3 647 385.8 645.5C407.3 644 428.7 642 450 640.8C471.3 639.7 492.7 639.3 514.2 640.3C535.7 641.3 557.3 643.7 578.8 644.8C600.3 646 621.7 646 643 645.2C664.3 644.3 685.7 642.7 707 643C728.3 643.3 749.7 645.7 771.2 645.8C792.7 646 814.3 644 835.8 642.7C857.3 641.3 878.7 640.7 889.3 640.3L900 640L900 676L889.3 676C878.7 676 857.3 676 835.8 676C814.3 676 792.7 676 771.2 676C749.7 676 728.3 676 707 676C685.7 676 664.3 676 643 676C621.7 676 600.3 676 578.8 676C557.3 676 535.7 676 514.2 676C492.7 676 471.3 676 450 676C428.7 676 407.3 676 385.8 676C364.3 676 342.7 676 321.2 676C299.7 676 278.3 676 257 676C235.7 676 214.3 676 193 676C171.7 676 150.3 676 128.8 676C107.3 676 85.7 676 64.2 676C42.7 676 21.3 676 10.7 676L0 676Z" fill="#a7d781"></path></svg>