<svg id="visual" viewBox="0 0 900 300" width="900" height="300" xmlns="http://www.w3.org/2000/svg" xmlns:xlink="http://www.w3.org/1999/xlink" version="1.1"><path d="M0 258L10.7 255.3C21.3 252.7 42.7 247.3 64.2 245.5C85.7 243.7 107.3 245.3 128.8 247.7C150.3 250 171.7 253 193 252.2C214.3 251.3 235.7 246.7 257 245.2C278.3 243.7 299.7 245.3 321.2 244.7C342.7 244 364.3 241 385.8 241C407.3 241 428.7 244 450 244.5C471.3 245 492.7 243 514.2 244.8C535.7 246.7 557.3 252.3 578.8 252.8C600.3 253.3 621.7 248.7 643 245.3C664.3 242 685.7 240 707 242C728.3 244 749.7 250 771.2 253.3C792.7 256.7 814.3 257.3 835.8 255.8C857.3 254.3 878.7 250.7 889.3 248.8L900 247L900 301L889.3 301C878.7 301 857.3 301 835.8 301C814.3 301 792.7 301 771.2 301C749.7 301 728.3 301 707 301C685.7 301 664.3 301 643 301C621.7 301 600.3 301 578.8 301C557.3 301 535.7 301 514.2 301C492.7 301 471.3 301 450 301C428.7 301 407.3 301 385.8 301C364.3 301 342.7 301 321.2 301C299.7 301 278.3 301 257 301C235.7 301 214.3 301 193 301C171.7 301 150.3 301 128.8 301C107.3 301 85.7 301 64.2 301C42.7 301 21.3 301 10.7 301L0 301Z" fill="#fdd8af"></path><path d="M0 264L10.7 261.8C21.3 259.7 42.7 255.3 64.2 255.7C85.7 256 107.3 261 128.8 263.5C150.3 266 171.7 266 193 264C214.3 262 235.7 258 257 258.3C278.3 258.7 299.7 263.3 321.2 262.8C342.7 262.3 364.3 256.7 385.8 256.8C407.3 257 428.7 263 450 262.8C471.3 262.7 492.7 256.3 514.2 255.7C535.7 255 557.3 260 578.8 260.8C600.3 261.7 621.7 258.3 643 256.2C664.3 254 685.7 253 707 254.7C728.3 256.3 749.7 260.7 771.2 262.2C792.7 263.7 814.3 262.3 835.8 261.7C857.3 261 878.7 261 889.3 261L900 261L900 301L889.3 301C878.7 301 857.3 301 835.8 301C814.3 301 792.7 301 771.2 301C749.7 301 728.3 301 707 301C685.7 301 664.3 301 643 301C621.7 301 600.3 301 578.8 301C557.3 301 535.7 301 514.2 301C492.7 301 471.3 301 450 301C428.7 301 407.3 301 385.8 301C364.3 301 342.7 301 321.2 301C299.7 301 278.3 301 257 301C235.7 301 214.3 301 193 301C171.7 301 150.3 301 128.8 301C107.3 301 85.7 301 64.2 301C42.7 301 21.3 301 10.7 301L0 301Z" fill="#ebd697"></path><path d="M0 266L10.7 267.7C21.3 269.3 42.7 272.7 64.2 274.2C85.7 275.7 107.3 275.3 128.8 274.8C150.3 274.3 171.7 273.7 193 274C214.3 274.3 235.7 275.7 257 275.3C278.3 275 299.7 273 321.2 272.7C342.7 272.3 364.3 273.7 385.8 274C407.3 274.3 428.7 273.7 450 272.8C471.3 272 492.7 271 514.2 270.8C535.7 270.7 557.3 271.3 578.8 271.8C600.3 272.3 621.7 272.7 643 272.7C664.3 272.7 685.7 272.3 707 271.7C728.3 271 749.7 270 771.2 270.5C792.7 271 814.3 273 835.8 273.8C857.3 274.7 878.7 274.3 889.3 274.2L900 274L900 301L889.3 301C878.7 301 857.3 301 835.8 301C814.3 301 792.7 301 771.2 301C749.7 301 728.3 301 707 301C685.7 301 664.3 301 643 301C621.7 301 600.3 301 578.8 301C557.3 301 535.7 301 514.2 301C492.7 301 471.3 301 450 301C428.7 301 407.3 301 385.8 301C364.3 301 342.7 301 321.2 301C299.7 301 278.3 301 257 301C235.7 301 214.3 301 193 301C171.7 301 150.3 301 128.8 301C107.3 301 85.7 301 64.2 301C42.7 301 21.3 301 10.7 301L0 301Z" fill="#ced687"></path><path d="M0 285L10.7 285.2C21.3 285.3 42.7 285.7 64.2 285.7C85.7 285.7 107.3 285.3 128.8 283.8C150.3 282.3 171.7 279.7 193 279.8C214.3 280 235.7 283 257 284.3C278.3 285.7 299.7 285.3 321.2 283.7C342.7 282 364.3 279 385.8 279.2C407.3 279.3 428.7 282.7 450 282.8C471.3 283 492.7 280 514.2 278.5C535.7 277 557.3 277 578.8 276.8C600.3 276.7 621.7 276.3 643 276.3C664.3 276.3 685.7 276.7 707 276.7C728.3 276.7 749.7 276.3 771.2 276.5C792.7 276.7 814.3 277.3 835.8 278C857.3 278.7 878.7 279.3 889.3 279.7L900 280L900 301L889.3 301C878.7 301 857.3 301 835.8 301C814.3 301 792.7 301 771.2 301C749.7 301 728.3 301 707 301C685.7 301 664.3 301 643 301C621.7 301 600.3 301 578.8 301C557.3 301 535.7 301 514.2 301C492.7 301 471.3 301 450 301C428.7 301 407.3 301 385.8 301C364.3 301 342.7 301 321.2 301C299.7 301 278.3 301 257 301C235.7 301 214.3 301 193 301C171.7 301 150.3 301 128.8 301C107.3 301 85.7 301 64.2 301C42.7 301 21.3 301 10.7 301L0 301Z" fill="#a7d781"></path></svg>