<svg id="visual" viewBox="0 0 900 675" width="900" height="675" xmlns="http://www.w3.org/2000/svg" xmlns:xlink="http://www.w3.org/1999/xlink" version="1.1"><path d="M0 541L10.7 541.7C21.3 542.3 42.7 543.7 64.2 546C85.7 548.3 107.3 551.7 128.8 553.7C150.3 555.7 171.7 556.3 193 558C214.3 559.7 235.7 562.3 257 560.7C278.3 559 299.7 553 321.2 552.7C342.7 552.3 364.3 557.7 385.8 558C407.3 558.3 428.7 553.7 450 554.2C471.3 554.7 492.7 560.3 514.2 561C535.7 561.7 557.3 557.3 578.8 554.5C600.3 551.7 621.7 550.3 643 550.7C664.3 551 685.7 553 707 552.7C728.3 552.3 749.7 549.7 771.2 546.8C792.7 544 814.3 541 835.8 543C857.3 545 878.7 552 889.3 555.5L900 559L900 676L889.3 676C878.7 676 857.3 676 835.8 676C814.3 676 792.7 676 771.2 676C749.7 676 728.3 676 707 676C685.7 676 664.3 676 643 676C621.7 676 600.3 676 578.8 676C557.3 676 535.7 676 514.2 676C492.7 676 471.3 676 450 676C428.7 676 407.3 676 385.8 676C364.3 676 342.7 676 321.2 676C299.7 676 278.3 676 257 676C235.7 676 214.3 676 193 676C171.7 676 150.3 676 128.8 676C107.3 676 85.7 676 64.2 676C42.7 676 21.3 676 10.7 676L0 676Z" fill="#e3bde1"></path><path d="M0 577L10.7 575.7C21.3 574.3 42.7 571.7 64.2 572.7C85.7 573.7 107.3 578.3 128.8 579C150.3 579.7 171.7 576.3 193 576.2C214.3 576 235.7 579 257 577C278.3 575 299.7 568 321.2 565C342.7 562 364.3 563 385.8 565.3C407.3 567.7 428.7 571.3 450 571.5C471.3 571.7 492.7 568.3 514.2 566.5C535.7 564.7 557.3 564.3 578.8 566C600.3 567.7 621.7 571.3 643 570.7C664.3 570 685.7 565 707 564.8C728.3 564.7 749.7 569.3 771.2 571.5C792.7 573.7 814.3 573.3 835.8 572.3C857.3 571.3 878.7 569.7 889.3 568.8L900 568L900 676L889.3 676C878.7 676 857.3 676 835.8 676C814.3 676 792.7 676 771.2 676C749.7 676 728.3 676 707 676C685.7 676 664.3 676 643 676C621.7 676 600.3 676 578.8 676C557.3 676 535.7 676 514.2 676C492.7 676 471.3 676 450 676C428.7 676 407.3 676 385.8 676C364.3 676 342.7 676 321.2 676C299.7 676 278.3 676 257 676C235.7 676 214.3 676 193 676C171.7 676 150.3 676 128.8 676C107.3 676 85.7 676 64.2 676C42.7 676 21.3 676 10.7 676L0 676Z" fill="#f3bed6"></path><path d="M0 595L10.7 592.7C21.3 590.3 42.7 585.7 64.2 586C85.7 586.3 107.3 591.7 128.8 592.5C150.3 593.3 171.7 589.7 193 587.7C214.3 585.7 235.7 585.3 257 586.2C278.3 587 299.7 589 321.2 591.5C342.7 594 364.3 597 385.8 596.5C407.3 596 428.7 592 450 591.2C471.3 590.3 492.7 592.7 514.2 592.3C535.7 592 557.3 589 578.8 588C600.3 587 621.7 588 643 589.7C664.3 591.3 685.7 593.7 707 592.3C728.3 591 749.7 586 771.2 584.2C792.7 582.3 814.3 583.7 835.8 586.3C857.3 589 878.7 593 889.3 595L900 597L900 676L889.3 676C878.7 676 857.3 676 835.8 676C814.3 676 792.7 676 771.2 676C749.7 676 728.3 676 707 676C685.7 676 664.3 676 643 676C621.7 676 600.3 676 578.8 676C557.3 676 535.7 676 514.2 676C492.7 676 471.3 676 450 676C428.7 676 407.3 676 385.8 676C364.3 676 342.7 676 321.2 676C299.7 676 278.3 676 257 676C235.7 676 214.3 676 193 676C171.7 676 150.3 676 128.8 676C107.3 676 85.7 676 64.2 676C42.7 676 21.3 676 10.7 676L0 676Z" fill="#fcc1ca"></path><path d="M0 608L10.7 609.3C21.3 610.7 42.7 613.3 64.2 612.7C85.7 612 107.3 608 128.8 605.7C150.3 603.3 171.7 602.7 193 603.3C214.3 604 235.7 606 257 605.8C278.3 605.7 299.7 603.3 321.2 601.7C342.7 600 364.3 599 385.8 600.7C407.3 602.3 428.7 606.7 450 607.3C471.3 608 492.7 605 514.2 605.3C535.7 605.7 557.3 609.3 578.8 608.8C600.3 608.3 621.7 603.7 643 603.7C664.3 603.7 685.7 608.3 707 611.2C728.3 614 749.7 615 771.2 615C792.7 615 814.3 614 835.8 611.8C857.3 609.7 878.7 606.3 889.3 604.7L900 603L900 676L889.3 676C878.7 676 857.3 676 835.8 676C814.3 676 792.7 676 771.2 676C749.7 676 728.3 676 707 676C685.7 676 664.3 676 643 676C621.7 676 600.3 676 578.8 676C557.3 676 535.7 676 514.2 676C492.7 676 471.3 676 450 676C428.7 676 407.3 676 385.8 676C364.3 676 342.7 676 321.2 676C299.7 676 278.3 676 257 676C235.7 676 214.3 676 193 676C171.7 676 150.3 676 128.8 676C107.3 676 85.7 676 64.2 676C42.7 676 21.3 676 10.7 676L0 676Z" fill="#ffc6be"></path><path d="M0 621L10.7 620.8C21.3 620.7 42.7 620.3 64.2 621.3C85.7 622.3 107.3 624.7 128.8 626.8C150.3 629 171.7 631 193 630.5C214.3 630 235.7 627 257 627C278.3 627 299.7 630 321.2 629.7C342.7 629.3 364.3 625.7 385.8 623.3C407.3 621 428.7 620 450 621.2C471.3 622.3 492.7 625.7 514.2 625.7C535.7 625.7 557.3 622.3 578.8 622.7C600.3 623 621.7 627 643 627.2C664.3 627.3 685.7 623.7 707 622.3C728.3 621 749.7 622 771.2 623.8C792.7 625.7 814.3 628.3 835.8 628.8C857.3 629.3 878.7 627.7 889.3 626.8L900 626L900 676L889.3 676C878.7 676 857.3 676 835.8 676C814.3 676 792.7 676 771.2 676C749.7 676 728.3 676 707 676C685.7 676 664.3 676 643 676C621.7 676 600.3 676 578.8 676C557.3 676 535.7 676 514.2 676C492.7 676 471.3 676 450 676C428.7 676 407.3 676 385.8 676C364.3 676 342.7 676 321.2 676C299.7 676 278.3 676 257 676C235.7 676 214.3 676 193 676C171.7 676 150.3 676 128.8 676C107.3 676 85.7 676 64.2 676C42.7 676 21.3 676 10.7 676L0 676Z" fill="#ffceb5"></path><path d="M0 640L10.7 641.3C21.3 642.7 42.7 645.3 64.2 646.2C85.7 647 107.3 646 128.8 645.5C150.3 645 171.7 645 193 645.2C214.3 645.3 235.7 645.7 257 644.7C278.3 643.7 299.7 641.3 321.2 640.8C342.7 640.3 364.3 641.7 385.8 642.7C407.3 643.7 428.7 644.3 450 644.2C471.3 644 492.7 643 514.2 642.5C535.7 642 557.3 642 578.8 642.5C600.3 643 621.7 644 643 645.3C664.3 646.7 685.7 648.3 707 647.8C728.3 647.3 749.7 644.7 771.2 643C792.7 641.3 814.3 640.7 835.8 640.3C857.3 640 878.7 640 889.3 640L900 640L900 676L889.3 676C878.7 676 857.3 676 835.8 676C814.3 676 792.7 676 771.2 676C749.7 676 728.3 676 707 676C685.7 676 664.3 676 643 676C621.7 676 600.3 676 578.8 676C557.3 676 535.7 676 514.2 676C492.7 676 471.3 676 450 676C428.7 676 407.3 676 385.8 676C364.3 676 342.7 676 321.2 676C299.7 676 278.3 676 257 676C235.7 676 214.3 676 193 676C171.7 676 150.3 676 128.8 676C107.3 676 85.7 676 64.2 676C42.7 676 21.3 676 10.7 676L0 676Z" fill="#fdd8af"></path></svg>