<svg id="visual" viewBox="0 0 900 300" width="900" height="300" xmlns="http://www.w3.org/2000/svg" xmlns:xlink="http://www.w3.org/1999/xlink" version="1.1"><path d="M0 254L10.7 252.5C21.3 251 42.7 248 64.2 247.2C85.7 246.3 107.3 247.7 128.8 247.2C150.3 246.7 171.7 244.3 193 245.2C214.3 246 235.7 250 257 251C278.3 252 299.7 250 321.2 248.7C342.7 247.3 364.3 246.7 385.8 245.7C407.3 244.7 428.7 243.3 450 244.7C471.3 246 492.7 250 514.2 251C535.7 252 557.3 250 578.8 247.7C600.3 245.3 621.7 242.7 643 244.7C664.3 246.7 685.7 253.3 707 253.5C728.3 253.7 749.7 247.3 771.2 246.3C792.7 245.3 814.3 249.7 835.8 249.7C857.3 249.7 878.7 245.3 889.3 243.2L900 241L900 301L889.3 301C878.7 301 857.3 301 835.8 301C814.3 301 792.7 301 771.2 301C749.7 301 728.3 301 707 301C685.7 301 664.3 301 643 301C621.7 301 600.3 301 578.8 301C557.3 301 535.7 301 514.2 301C492.7 301 471.3 301 450 301C428.7 301 407.3 301 385.8 301C364.3 301 342.7 301 321.2 301C299.7 301 278.3 301 257 301C235.7 301 214.3 301 193 301C171.7 301 150.3 301 128.8 301C107.3 301 85.7 301 64.2 301C42.7 301 21.3 301 10.7 301L0 301Z" fill="#cf91cc"></path><path d="M0 265L10.7 263.2C21.3 261.3 42.7 257.7 64.2 255.8C85.7 254 107.3 254 128.8 253.5C150.3 253 171.7 252 193 251.3C214.3 250.7 235.7 250.3 257 253C278.3 255.7 299.7 261.3 321.2 263.8C342.7 266.3 364.3 265.7 385.8 265.3C407.3 265 428.7 265 450 263.3C471.3 261.7 492.7 258.3 514.2 258C535.7 257.7 557.3 260.3 578.8 259.7C600.3 259 621.7 255 643 254.5C664.3 254 685.7 257 707 259.7C728.3 262.3 749.7 264.7 771.2 263.5C792.7 262.3 814.3 257.7 835.8 255.3C857.3 253 878.7 253 889.3 253L900 253L900 301L889.3 301C878.7 301 857.3 301 835.8 301C814.3 301 792.7 301 771.2 301C749.7 301 728.3 301 707 301C685.7 301 664.3 301 643 301C621.7 301 600.3 301 578.8 301C557.3 301 535.7 301 514.2 301C492.7 301 471.3 301 450 301C428.7 301 407.3 301 385.8 301C364.3 301 342.7 301 321.2 301C299.7 301 278.3 301 257 301C235.7 301 214.3 301 193 301C171.7 301 150.3 301 128.8 301C107.3 301 85.7 301 64.2 301C42.7 301 21.3 301 10.7 301L0 301Z" fill="#fc9497"></path><path d="M0 270L10.7 269.7C21.3 269.3 42.7 268.7 64.2 268.8C85.7 269 107.3 270 128.8 271.3C150.3 272.7 171.7 274.3 193 273.7C214.3 273 235.7 270 257 270.2C278.3 270.3 299.7 273.7 321.2 275.2C342.7 276.7 364.3 276.3 385.8 275C407.3 273.7 428.7 271.3 450 270.3C471.3 269.3 492.7 269.7 514.2 269.7C535.7 269.7 557.3 269.3 578.8 268.3C600.3 267.3 621.7 265.7 643 265C664.3 264.3 685.7 264.7 707 265.7C728.3 266.7 749.7 268.3 771.2 268.8C792.7 269.3 814.3 268.7 835.8 269.5C857.3 270.3 878.7 272.7 889.3 273.8L900 275L900 301L889.3 301C878.7 301 857.3 301 835.8 301C814.3 301 792.7 301 771.2 301C749.7 301 728.3 301 707 301C685.7 301 664.3 301 643 301C621.7 301 600.3 301 578.8 301C557.3 301 535.7 301 514.2 301C492.7 301 471.3 301 450 301C428.7 301 407.3 301 385.8 301C364.3 301 342.7 301 321.2 301C299.7 301 278.3 301 257 301C235.7 301 214.3 301 193 301C171.7 301 150.3 301 128.8 301C107.3 301 85.7 301 64.2 301C42.7 301 21.3 301 10.7 301L0 301Z" fill="#eab36c"></path><path d="M0 284L10.7 283C21.3 282 42.7 280 64.2 278.7C85.7 277.3 107.3 276.7 128.8 278C150.3 279.3 171.7 282.7 193 283.3C214.3 284 235.7 282 257 281.2C278.3 280.3 299.7 280.7 321.2 280C342.7 279.3 364.3 277.7 385.8 278.3C407.3 279 428.7 282 450 283C471.3 284 492.7 283 514.2 282.2C535.7 281.3 557.3 280.7 578.8 280.3C600.3 280 621.7 280 643 279.3C664.3 278.7 685.7 277.3 707 277.5C728.3 277.7 749.7 279.3 771.2 280C792.7 280.7 814.3 280.3 835.8 279.5C857.3 278.7 878.7 277.3 889.3 276.7L900 276L900 301L889.3 301C878.7 301 857.3 301 835.8 301C814.3 301 792.7 301 771.2 301C749.7 301 728.3 301 707 301C685.7 301 664.3 301 643 301C621.7 301 600.3 301 578.8 301C557.3 301 535.7 301 514.2 301C492.7 301 471.3 301 450 301C428.7 301 407.3 301 385.8 301C364.3 301 342.7 301 321.2 301C299.7 301 278.3 301 257 301C235.7 301 214.3 301 193 301C171.7 301 150.3 301 128.8 301C107.3 301 85.7 301 64.2 301C42.7 301 21.3 301 10.7 301L0 301Z" fill="#a7d781"></path></svg>