<svg id="visual" viewBox="0 0 900 300" width="900" height="300" xmlns="http://www.w3.org/2000/svg" xmlns:xlink="http://www.w3.org/1999/xlink" version="1.1"><path d="M0 244L10.7 246.3C21.3 248.7 42.7 253.3 64.2 253.2C85.7 253 107.3 248 128.8 245.7C150.3 243.3 171.7 243.7 193 245.8C214.3 248 235.7 252 257 254.5C278.3 257 299.7 258 321.2 257.3C342.7 256.7 364.3 254.3 385.8 250.7C407.3 247 428.7 242 450 240.3C471.3 238.7 492.7 240.3 514.2 242.8C535.7 245.3 557.3 248.7 578.8 248.3C600.3 248 621.7 244 643 243.3C664.3 242.7 685.7 245.3 707 248.2C728.3 251 749.7 254 771.2 252.3C792.7 250.7 814.3 244.3 835.8 241.8C857.3 239.3 878.7 240.7 889.3 241.3L900 242L900 301L889.3 301C878.7 301 857.3 301 835.8 301C814.3 301 792.7 301 771.2 301C749.7 301 728.3 301 707 301C685.7 301 664.3 301 643 301C621.7 301 600.3 301 578.8 301C557.3 301 535.7 301 514.2 301C492.7 301 471.3 301 450 301C428.7 301 407.3 301 385.8 301C364.3 301 342.7 301 321.2 301C299.7 301 278.3 301 257 301C235.7 301 214.3 301 193 301C171.7 301 150.3 301 128.8 301C107.3 301 85.7 301 64.2 301C42.7 301 21.3 301 10.7 301L0 301Z" fill="#e3bde1"></path><path d="M0 258L10.7 258.8C21.3 259.7 42.7 261.3 64.2 260.8C85.7 260.3 107.3 257.7 128.8 256.3C150.3 255 171.7 255 193 255.3C214.3 255.7 235.7 256.3 257 256.3C278.3 256.3 299.7 255.7 321.2 255.3C342.7 255 364.3 255 385.8 254.3C407.3 253.7 428.7 252.3 450 252.5C471.3 252.7 492.7 254.3 514.2 255.7C535.7 257 557.3 258 578.8 257.7C600.3 257.3 621.7 255.7 643 256.2C664.3 256.7 685.7 259.3 707 261.2C728.3 263 749.7 264 771.2 262.5C792.7 261 814.3 257 835.8 257.3C857.3 257.7 878.7 262.3 889.3 264.7L900 267L900 301L889.3 301C878.7 301 857.3 301 835.8 301C814.3 301 792.7 301 771.2 301C749.7 301 728.3 301 707 301C685.7 301 664.3 301 643 301C621.7 301 600.3 301 578.8 301C557.3 301 535.7 301 514.2 301C492.7 301 471.3 301 450 301C428.7 301 407.3 301 385.8 301C364.3 301 342.7 301 321.2 301C299.7 301 278.3 301 257 301C235.7 301 214.3 301 193 301C171.7 301 150.3 301 128.8 301C107.3 301 85.7 301 64.2 301C42.7 301 21.3 301 10.7 301L0 301Z" fill="#fabfce"></path><path d="M0 275L10.7 273.7C21.3 272.3 42.7 269.7 64.2 268C85.7 266.3 107.3 265.7 128.8 265C150.3 264.3 171.7 263.7 193 263.5C214.3 263.3 235.7 263.7 257 265.8C278.3 268 299.7 272 321.2 272C342.7 272 364.3 268 385.8 266.3C407.3 264.7 428.7 265.3 450 267.5C471.3 269.7 492.7 273.3 514.2 274.8C535.7 276.3 557.3 275.7 578.8 273.8C600.3 272 621.7 269 643 269C664.3 269 685.7 272 707 273.7C728.3 275.3 749.7 275.7 771.2 273.8C792.7 272 814.3 268 835.8 267.2C857.3 266.3 878.7 268.7 889.3 269.8L900 271L900 301L889.3 301C878.7 301 857.3 301 835.8 301C814.3 301 792.7 301 771.2 301C749.7 301 728.3 301 707 301C685.7 301 664.3 301 643 301C621.7 301 600.3 301 578.8 301C557.3 301 535.7 301 514.2 301C492.7 301 471.3 301 450 301C428.7 301 407.3 301 385.8 301C364.3 301 342.7 301 321.2 301C299.7 301 278.3 301 257 301C235.7 301 214.3 301 193 301C171.7 301 150.3 301 128.8 301C107.3 301 85.7 301 64.2 301C42.7 301 21.3 301 10.7 301L0 301Z" fill="#ffc8bb"></path><path d="M0 285L10.7 285.2C21.3 285.3 42.7 285.7 64.2 284.5C85.7 283.3 107.3 280.7 128.8 279.5C150.3 278.3 171.7 278.7 193 278.5C214.3 278.3 235.7 277.7 257 277.7C278.3 277.7 299.7 278.3 321.2 279.3C342.7 280.3 364.3 281.7 385.8 282.8C407.3 284 428.7 285 450 284.7C471.3 284.3 492.7 282.7 514.2 282.2C535.7 281.7 557.3 282.3 578.8 283.2C600.3 284 621.7 285 643 284.2C664.3 283.3 685.7 280.7 707 280.7C728.3 280.7 749.7 283.3 771.2 283.2C792.7 283 814.3 280 835.8 279.3C857.3 278.7 878.7 280.3 889.3 281.2L900 282L900 301L889.3 301C878.7 301 857.3 301 835.8 301C814.3 301 792.7 301 771.2 301C749.7 301 728.3 301 707 301C685.7 301 664.3 301 643 301C621.7 301 600.3 301 578.8 301C557.3 301 535.7 301 514.2 301C492.7 301 471.3 301 450 301C428.7 301 407.3 301 385.8 301C364.3 301 342.7 301 321.2 301C299.7 301 278.3 301 257 301C235.7 301 214.3 301 193 301C171.7 301 150.3 301 128.8 301C107.3 301 85.7 301 64.2 301C42.7 301 21.3 301 10.7 301L0 301Z" fill="#fdd8af"></path></svg>